<svg t="1754634134258" class="icon" viewBox="0 0 1025 1024" version="1.1" xmlns="http://www.w3.org/2000/svg" p-id="7961" width="200" height="200"><path d="M722.989495 193.972791c38.618219 5.642845 78.823489 0 110.299983 3.791287 51.226451 8.816945 77.236439 52.108145 71.593594 116.207336h-63.217496c-1.851558 113.738591 0 226.24281 0 340.334079a1649.474083 1649.474083 0 0 1 0 169.638023 96.986396 96.986396 0 0 1-84.819012 85.788876 1045.160668 1045.160668 0 0 1-147.683829 1.939728c-99.631479 0-200.761839 1.851558-298.54176 0a125.729637 125.729637 0 0 1-103.687274-44.96642c-21.337007-28.566902-19.132771-72.21078-19.132771-123.437231V313.618736h-60.043396c-9.434131-58.720854 16.04684-101.13036 59.073532-115.325641 31.476494-10.315826 74.150508-1.851558 119.116928-4.672981-3.438609-62.864818 0-111.534355 54.400551-118.147064 24.422938-2.821422 56.869296 0 86.67057 0h173.429309c33.063544 0 67.008783-3.1741 83.937317 11.638367 23.541243 20.102635 17.63389 66.920613 18.251077 106.508697z m-357.967969-55.634923v57.133804h298.54176v-60.043396H365.99139v2.909592z m-58.103668 181.893577v362.023764c0 31.388324-6.965387 96.986396 11.550198 110.564491a38.882728 38.882728 0 0 0 35.26778 0c19.132771-13.489926 12.255554-77.589117 12.255554-109.682796V317.410022h-58.191838v2.821423z m177.220596 0V671.851214c0 27.949716-6.3482 94.253143 5.025658 112.504219a35.26778 35.26778 0 0 0 44.613742 8.816945c16.928535-13.225418 9.434131-82.967453 9.434132-111.534355V317.410022h-59.073532z m179.424832 0v367.931117c0 37.736525-7.582573 94.341312 16.928534 105.803341a46.729809 46.729809 0 0 0 34.297917-2.909592c15.958671-13.137248 8.816945-83.849148 8.816945-111.534355V317.410022h-59.073532v2.821423z m0 0" p-id="7962"></path></svg>