<svg t="1763620925970" class="icon" viewBox="0 0 1024 1024" version="1.1" xmlns="http://www.w3.org/2000/svg" p-id="8385" width="200" height="200"><path d="M512.915921 31.141324c0-9.159213-3.663685-16.486583-10.991055-20.150269-7.32737-3.663685-16.486583-3.663685-23.813954 0s-10.991055 12.822898-10.991055 20.150269v252.794275c0 12.822898-1.831843 45.796064-45.796065 45.796065-42.132379 0-45.796064-32.973166-45.796064-45.796065V20.150268L329.731664 9.159213l-45.796065 10.991055v265.617174c0 12.822898-1.831843 45.796064-45.796064 45.796064-42.132379 0-45.796064-32.973166-45.796065-45.796064V31.141324c0-9.159213-3.663685-16.486583-10.991055-20.150269C174.025045 7.32737 164.865832 7.32737 157.538462 10.991055c-9.159213 5.495528-14.654741 12.822898-14.654741 20.150269V54.955277S97.087657 272.944544 97.087657 377.359571c0 36.636852 60.450805 111.742397 170.361359 131.892665L236.307692 915.921288c0 5.495528-1.831843 9.159213-1.831842 14.654741 0 51.291592 42.132379 91.592129 91.592129 91.592128 51.291592 0 91.592129-42.132379 91.592128-91.592128 0-5.495528 0-9.159213-1.831842-14.654741L384.686941 509.252236c108.078712-20.150268 170.36136-93.423971 170.36136-131.892665C558.711986 274.776386 512.915921 54.955277 512.915921 54.955277V31.141324z m413.996422 392.014311c-1.831843-196.007156-86.096601-338.890877-144.715563-392.014311C773.037567 16.486583 758.382826 9.159213 741.896243 9.159213 718.08229 9.159213 696.100179 29.309481 696.100179 54.955277v875.620752h3.663685c-10.991055 29.309481 0 60.450805 23.813954 78.76923s58.618962 18.318426 82.432915 0c23.813953-18.318426 34.805009-49.45975 23.813954-78.76923h3.663685V699.763864s91.592129-7.32737 91.592129-91.592129V423.155635z" p-id="8386"></path></svg>